<svg width="42" height="42" viewBox="0 0 42 42" fill="none" xmlns="http://www.w3.org/2000/svg">
<circle cx="21" cy="21" r="20" fill="#45A29E" stroke="#66FCF1" stroke-width="2"/>

  <svg x="6" y="9">
    <g id="svgGroup" stroke-linecap="round" fill-rule="evenodd" font-size="9pt"  style="stroke:none;stroke-width:0.15mm;fill:#b20000">
      <path d="M 5.225 20.175 Q 3.875 20.175 2.675 19.688 Q 1.475 19.2 0.738 18.2 A 3.693 3.693 0 0 1 0.095 16.714 A 5.146 5.146 0 0 1 0 15.7 A 5.355 5.355 0 0 1 0.05 14.944 Q 0.108 14.541 0.232 14.212 A 2.38 2.38 0 0 1 0.513 13.675 A 3.045 3.045 0 0 1 1.144 13.009 A 2.649 2.649 0 0 1 1.775 12.65 A 4.439 4.439 0 0 1 2.495 12.427 A 3.37 3.37 0 0 1 3.2 12.35 Q 2.525 13.075 2.175 13.95 Q 1.825 14.825 1.825 15.7 Q 1.825 16.625 2.238 17.425 A 3.065 3.065 0 0 0 3.294 18.586 A 3.769 3.769 0 0 0 3.5 18.713 Q 4.241 19.137 5.322 19.192 A 6.486 6.486 0 0 0 5.65 19.2 Q 6.775 19.2 7.85 18.788 A 4.463 4.463 0 0 0 9.068 18.095 A 4.038 4.038 0 0 0 9.613 17.563 A 2.885 2.885 0 0 0 10.274 16.004 A 3.827 3.827 0 0 0 10.3 15.55 A 3.516 3.516 0 0 0 10.173 14.586 A 2.877 2.877 0 0 0 9.75 13.7 A 5.499 5.499 0 0 0 8.712 12.606 A 6.527 6.527 0 0 0 8.338 12.325 A 22.752 22.752 0 0 0 6.742 11.313 A 25.051 25.051 0 0 0 6.5 11.175 A 21.047 21.047 0 0 1 4.771 10.089 A 19.385 19.385 0 0 1 4.663 10.013 A 5.912 5.912 0 0 1 3.604 9.059 A 5.264 5.264 0 0 1 3.25 8.6 A 3.1 3.1 0 0 1 2.745 7.29 A 4.093 4.093 0 0 1 2.7 6.675 A 4.95 4.95 0 0 1 2.876 5.393 A 6.554 6.554 0 0 1 3.2 4.475 A 7.577 7.577 0 0 1 4.196 2.82 A 8.989 8.989 0 0 1 4.638 2.3 Q 5.575 1.275 6.888 0.638 Q 8.2 0 9.825 0 A 4.773 4.773 0 0 1 10.545 0.05 Q 11.453 0.189 11.875 0.713 A 2.556 2.556 0 0 1 12.402 1.909 A 3.499 3.499 0 0 1 12.45 2.5 A 5.967 5.967 0 0 1 12.351 3.556 A 7.923 7.923 0 0 1 12.138 4.438 Q 11.825 5.475 11.375 6.413 A 23.32 23.32 0 0 1 11.045 7.075 Q 10.775 7.594 10.525 8 A 1.417 1.417 0 0 1 10.261 7.916 Q 10.111 7.849 10.005 7.751 A 0.739 0.739 0 0 1 9.888 7.613 A 1.144 1.144 0 0 1 9.717 7.158 A 1.511 1.511 0 0 1 9.7 6.925 Q 9.7 6.4 9.925 5.725 A 25.863 25.863 0 0 1 10.298 4.684 A 29.66 29.66 0 0 1 10.438 4.325 A 25.262 25.262 0 0 0 10.834 3.259 A 22.56 22.56 0 0 0 10.95 2.913 A 5.16 5.16 0 0 0 11.096 2.377 Q 11.175 2.002 11.175 1.675 A 1.344 1.344 0 0 0 11.136 1.343 A 0.937 0.937 0 0 0 10.875 0.888 A 0.81 0.81 0 0 0 10.617 0.727 Q 10.376 0.628 10.001 0.606 A 3.866 3.866 0 0 0 9.775 0.6 Q 8.6 0.6 7.6 1.15 Q 6.6 1.7 5.85 2.563 Q 5.1 3.425 4.688 4.375 A 5.784 5.784 0 0 0 4.428 5.091 Q 4.275 5.628 4.275 6.1 A 2.655 2.655 0 0 0 4.416 6.978 A 2.338 2.338 0 0 0 4.813 7.688 A 5.116 5.116 0 0 0 5.561 8.43 A 6.602 6.602 0 0 0 6.2 8.888 A 37.368 37.368 0 0 0 7.538 9.694 A 42.851 42.851 0 0 0 8.013 9.963 Q 8.975 10.5 9.825 11.15 Q 10.675 11.8 11.213 12.688 A 3.612 3.612 0 0 1 11.66 13.869 A 5.058 5.058 0 0 1 11.75 14.85 A 4.999 4.999 0 0 1 11.606 16.072 A 4.085 4.085 0 0 1 11.175 17.138 Q 10.6 18.125 9.638 18.8 Q 8.675 19.475 7.525 19.825 Q 6.375 20.175 5.225 20.175 Z" id="0" vector-effect="non-scaling-stroke"/>
      <path d="M 23.863 20.338 A 4.879 4.879 0 0 0 24.031 20.487 Q 24.664 21.025 25.15 21.025 A 1.015 1.015 0 0 0 25.275 21.017 Q 25.435 20.997 25.604 20.927 A 1.837 1.837 0 0 0 25.888 20.775 Q 26.069 20.658 26.199 20.524 A 1.173 1.173 0 0 0 26.425 20.2 A 28.119 28.119 0 0 1 24.944 18.913 A 20.707 20.707 0 0 1 23.7 17.65 A 24.569 24.569 0 0 1 22.899 16.714 A 20.416 20.416 0 0 1 21.75 15.163 Q 20.925 13.925 20.225 12.675 Q 19.525 11.425 18.75 10.1 A 8.041 8.041 0 0 0 18.973 10.097 Q 19.243 10.089 19.627 10.065 A 38.332 38.332 0 0 0 20.025 10.038 Q 20.875 9.975 21.925 9.788 A 13.654 13.654 0 0 0 22.122 9.751 A 14.91 14.91 0 0 0 24.05 9.238 Q 25.125 8.875 26.038 8.275 Q 26.95 7.675 27.513 6.788 A 3.49 3.49 0 0 0 27.954 5.741 A 4.473 4.473 0 0 0 28.075 4.675 Q 28.075 3.425 27.5 2.538 Q 26.925 1.65 25.988 1.088 Q 25.05 0.525 23.938 0.263 A 10.5 10.5 0 0 0 23.799 0.231 A 9.447 9.447 0 0 0 21.75 0 Q 20.625 0 19.575 0.225 A 15.853 15.853 0 0 0 18.812 0.408 A 12.84 12.84 0 0 0 17.65 0.775 A 52.556 52.556 0 0 0 17.408 0.866 Q 17.053 1 16.737 1.125 A 29.321 29.321 0 0 0 16.125 1.375 A 0.223 0.223 0 0 0 16.128 1.408 Q 16.145 1.521 16.275 1.663 Q 16.425 1.825 16.613 1.938 A 1.499 1.499 0 0 0 16.693 1.983 Q 16.776 2.026 16.837 2.041 A 0.259 0.259 0 0 0 16.9 2.05 A 0.323 0.323 0 0 0 16.966 2.042 Q 17.111 2.012 17.382 1.86 A 5.495 5.495 0 0 0 17.55 1.763 Q 17.862 1.574 18.303 1.364 A 16.046 16.046 0 0 1 18.8 1.138 A 5.656 5.656 0 0 1 18.912 1.09 Q 19.302 0.93 19.759 0.809 A 9.475 9.475 0 0 1 20.625 0.625 Q 19.85 2.375 19.175 4 Q 18.5 5.625 17.888 7.225 Q 17.275 8.825 16.7 10.45 A 336.841 336.841 0 0 0 16.411 11.27 A 374.82 374.82 0 0 0 15.525 13.825 A 151.56 151.56 0 0 0 14.919 15.631 A 179.565 179.565 0 0 0 14.3 17.55 A 48.431 48.431 0 0 1 14.194 17.891 A 63.441 63.441 0 0 1 14.075 18.263 Q 13.997 18.505 13.968 18.703 A 1.524 1.524 0 0 0 13.95 18.925 A 0.986 0.986 0 0 0 14.172 19.562 A 1.339 1.339 0 0 0 14.463 19.825 Q 14.975 20.175 15.6 20.175 A 177.478 177.478 0 0 0 16.194 18.141 A 238.908 238.908 0 0 0 16.825 15.888 Q 17.475 13.525 18.175 11.075 Q 18.428 11.666 18.749 12.343 A 56.007 56.007 0 0 0 19.288 13.45 Q 19.95 14.775 20.738 16.1 A 37.327 37.327 0 0 0 21.33 17.064 A 31.301 31.301 0 0 0 22.325 18.538 A 17.629 17.629 0 0 0 22.612 18.926 Q 22.926 19.337 23.229 19.682 A 9.323 9.323 0 0 0 23.863 20.338 Z M 18.575 9.7 A 13.775 13.775 0 0 0 21.139 9.307 A 15.205 15.205 0 0 0 21.313 9.263 A 10.505 10.505 0 0 0 23.336 8.513 A 9.452 9.452 0 0 0 23.85 8.238 A 5.814 5.814 0 0 0 25.245 7.133 A 5.306 5.306 0 0 0 25.7 6.563 A 3.929 3.929 0 0 0 26.359 4.805 A 5.089 5.089 0 0 0 26.4 4.15 A 4.697 4.697 0 0 0 26.325 3.283 Q 26.234 2.798 26.032 2.413 A 2.464 2.464 0 0 0 25.75 1.988 A 3.552 3.552 0 0 0 24.139 0.884 A 4.239 4.239 0 0 0 24.075 0.863 Q 23.05 0.525 21.925 0.525 A 29.014 29.014 0 0 0 21.288 1.916 Q 20.756 3.155 20.225 4.663 A 120.369 120.369 0 0 0 18.978 8.401 A 133.691 133.691 0 0 0 18.575 9.7 Z" id="1" vector-effect="non-scaling-stroke"/>
    </g>
  </svg>
</svg>
